<svg xmlns="http://www.w3.org/2000/svg" fill="none" viewBox="0 0 1023 1112">
  <path fill="#E7ECFF" d="M318.635 37.694C198.697 138.217 180.111 328.298 98.881 468.527c-28.277 48.795-64.814 92.465-83.877 146.596-43.766 123.903 16.468 264.449 97.089 362.858 38.443 46.949 83.347 89.959 137.677 109.739 41.78 15.22 86.578 15.85 130.555 16.25l770.465 7.93c86.02.87 181.6-2.28 243.45-68.69 42.63-45.732 59.94-112.518 74.64-176.266 18.05-78.331 34.42-163.398 6.32-238.004-32.09-85.358-113.24-133.73-163.65-207.385-81.81-119.332-79.93-299.824-184.11-395.089-48.64-44.462-112.82-61.898-175.357-70.616-117.899-16.46-229.577 14.61-345.358 10.277-98.969-3.699-205.986 2.747-288.09 71.567Z" opacity=".5"/>
  <path fill="#505F98" d="M560.078 933.613c-46.449 4.67-94.323 9.806-135.197 32.651-5.471 3.064-11.025 6.678-14.044 12.194-6.057 11.095.818 25.722 11.487 32.402 10.669 6.67 23.832 7.43 36.388 7.98 223.567 9.75 447.469 5.92 671.228 2.12 64.98-1.1 130.98-2.37 193.25-21.242 11.2-3.381 23.5-8.453 27.71-19.506 5.52-14.455-7.06-30.475-21.73-34.976-14.67-4.501-30.33-1.141-45.51.824-52.69 6.826-105.85-3.614-158.31-11.961-102.71-16.315-209.275-29.587-313.303-32.06-35.466-.824-65.754 11.476-100.465 16.337-50.117 7.058-101.115 10.165-151.504 15.237Z" opacity=".24"/>
  <path fill="#fff" d="m377.369 500.326 115.829-235.918 68.987 33.782-115.83 235.918-68.986-33.782Z"/>
  <path fill="#505F98" d="m404.214 493.055 14.113-28.835 46.464 22.683-14.113 28.835-46.464-22.683Z"/>
  <path fill="url(#a)" d="m404.214 493.055 14.113-28.835 46.464 22.683-14.113 28.835-46.464-22.683Z"/>
  <path fill="#505F98" d="m418.329 464.445 14.114-28.835 46.464 22.683-14.113 28.835-46.465-22.683Z"/>
  <path fill="url(#b)" d="m418.329 464.445 14.114-28.835 46.464 22.683-14.113 28.835-46.465-22.683Z"/>
  <path fill="#505F98" d="m432.426 435.826 14.114-28.835 46.464 22.683-14.114 28.835-46.464-22.683Z"/>
  <path fill="url(#c)" d="m432.426 435.826 14.114-28.835 46.464 22.683-14.114 28.835-46.464-22.683Z"/>
  <path fill="#505F98" d="m446.563 407.237 14.113-28.835 46.464 22.683-14.113 28.835-46.464-22.683Z"/>
  <path fill="url(#d)" d="m446.563 407.237 14.113-28.835 46.464 22.683-14.113 28.835-46.464-22.683Z"/>
  <path fill="#505F98" d="m460.668 378.599 14.114-28.835 46.464 22.683-14.113 28.835-46.465-22.683Z"/>
  <path fill="#505F98" d="m474.784 350.01 14.113-28.835 46.465 22.683-14.114 28.835-46.464-22.683Z"/>
  <path fill="#505F98" d="m488.881 321.391 14.113-28.835 46.464 22.683-14.113 28.835-46.464-22.683Z"/>
  <path fill="url(#e)" d="m473.196 353.598 14.113-28.835 46.465 22.683-14.114 28.835-46.464-22.683Z"/>
  <path fill="url(#f)" d="m487.321 324.97 14.113-28.835 46.464 22.682-14.113 28.835-46.464-22.682Z"/>
  <path fill="#505F98" d="M787.837 818h98.068v82h-98.068z"/>
  <path fill="url(#g)" d="M787.837 818h98.068v82h-98.068z"/>
  <rect width="518.359" height="355" x="579.693" y="476" fill="#505F98" rx="9.37"/>
  <path fill="url(#h)" d="M1081.04 505.438v294.124A18.371 18.371 0 0 1 1062.7 818H611.039a18.367 18.367 0 0 1-12.983-5.418 18.403 18.403 0 0 1-5.354-13.02V505.438a18.403 18.403 0 0 1 5.354-13.02A18.367 18.367 0 0 1 611.039 487H1062.7a18.371 18.371 0 0 1 18.34 18.438Z" opacity=".65"/>
  <path fill="#505F98" d="M742.806 890h206.143v21H742.806z"/>
  <path fill="url(#i)" d="M787.837 878h98.068v12h-98.068z"/>
  <path fill="#505F98" fill-rule="evenodd" d="M942.945 304.241v20.474l-12.71.104a57.144 57.144 0 0 1-10.538 26.362l10.855 11.17-14.88 14.249-10.686-11.022a59.2 59.2 0 0 1-21.856 9.136V388h-20.571v-12.971a58.032 58.032 0 0 1-24.47-9.535l-8.936 8.822-14.564-14.669 8.873-8.654a57.66 57.66 0 0 1-10.37-26.278h-14.247v-20.474h14.753a57.193 57.193 0 0 1 10.538-22.422l-8.24-8.487 14.88-14.25 8.43 8.738a55.948 55.948 0 0 1 23.184-8.738V245h20.571v14.396a59.341 59.341 0 0 1 23.184 10.08l10.538-10.31 14.48 14.543-10.538 10.478a57.775 57.775 0 0 1 8.641 20.054h13.679ZM836.803 317.15c-.023 19.061 15.5 34.532 34.671 34.555a34.75 34.75 0 0 0 24.577-10.061 34.35 34.35 0 0 0 10.178-24.411c.024-19.061-15.499-34.532-34.67-34.555-19.172-.023-34.732 15.41-34.756 34.472Z" clip-rule="evenodd"/>
  <path fill="#505F98" fill-rule="evenodd" d="m1019 338.354-.92 12.042-7.51-.458a33.607 33.607 0 0 1-7.29 15.02l5.87 7.063-9.352 7.708-5.759-6.937a34.776 34.776 0 0 1-13.189 4.396l-.605 7.812-12.041-.896.584-7.625a33.981 33.981 0 0 1-13.898-6.687l-5.634 4.791-7.868-9.187 5.572-4.708a33.945 33.945 0 0 1-4.904-15.896l-8.118-.625.898-12.021 8.618.646a34.034 34.034 0 0 1 7.116-12.73l-4.445-5.354 9.349-7.708 4.529 5.5a33.018 33.018 0 0 1 13.919-4.167l.626-8.333 12.041.896-.647 8.479a34.41 34.41 0 0 1 13.063 6.937l6.615-5.604 7.85 9.188-6.68 5.687a33.452 33.452 0 0 1 4.17 12.188l8.04.583Zm-62.7 2.889c-.855 11.193 7.537 20.96 18.749 21.819a20.347 20.347 0 0 0 14.84-4.834 20.285 20.285 0 0 0 7.03-13.916c.842-11.193-7.561-20.951-18.773-21.798-11.212-.848-20.991 7.536-21.846 18.729Z" clip-rule="evenodd"/>
  <path fill="url(#j)" d="M1081.04 505.513V512H592.702v-6.487a18.518 18.518 0 0 1 5.354-13.073 18.335 18.335 0 0 1 12.985-5.44H1062.7c4.88.006 9.55 1.961 12.99 5.434a18.486 18.486 0 0 1 5.35 13.079Z"/>
  <path fill="url(#k)" d="M602.709 544h47.033v227h-47.033z"/>
  <path fill="url(#l)" d="M720.791 560h221.153v209H720.791z"/>
  <path fill="url(#m)" d="M771.826 658h7.005v9h-7.005z"/>
  <path fill="url(#n)" d="M771.826 616h7.005v9h-7.005z"/>
  <path fill="url(#o)" d="M676.76 658h7.005v9h-7.005z"/>
  <path fill="url(#p)" d="M676.76 616h7.005v9h-7.005z"/>
  <path fill="url(#q)" d="M771.826 571h7.005v9h-7.005z"/>
  <path fill="url(#r)" d="M677.761 571h7.005v9h-7.005z"/>
  <path fill="url(#s)" d="M725.794 571h7.005v9h-7.005z"/>
  <path fill="url(#t)" d="M725.794 658h7.005v9h-7.005z"/>
  <path fill="#505F98" fill-rule="evenodd" d="M689.769 656h78.054v-73h-78.054v73Zm70.192-7.718h-62.33v-57.626h62.33v57.626Z" clip-rule="evenodd"/>
  <path fill="url(#u)" fill-rule="evenodd" d="M689.769 656h78.054v-73h-78.054v73Zm70.192-7.718h-62.33v-57.626h62.33v57.626Z" clip-rule="evenodd"/>
  <path fill="url(#v)" d="M973.966 524h100.069v100H973.966z"/>
  <path fill="url(#w)" d="M973.966 634h100.069v100H973.966z"/>
  <path fill="url(#x)" d="M602.709 543h47.033v13h-47.033z" opacity=".65"/>
  <path fill="#fff" d="m399.673 474.827 205.128-164.534 48.113 59.825-205.129 164.534-48.112-59.825Z"/>
  <path fill="#505F98" d="m428.396 479.455 25.068-20.22 32.582 40.287-25.067 20.22-32.583-40.287Z"/>
  <path fill="url(#y)" d="m428.396 479.455 25.068-20.22 32.582 40.287-25.067 20.22-32.583-40.287Z"/>
  <path fill="#505F98" d="m452.014 459.689 25.033-20.129 32.434 40.23-25.032 20.129-32.435-40.23Z"/>
  <path fill="url(#z)" d="m452.014 459.689 25.033-20.129 32.434 40.23-25.032 20.129-32.435-40.23Z"/>
  <path fill="#505F98" d="m476.958 439.761 25.032-20.128 32.435 40.23-25.032 20.128-32.435-40.23Z"/>
  <path fill="url(#A)" d="m476.958 439.761 25.032-20.128 32.435 40.23-25.032 20.128-32.435-40.23Z"/>
  <path fill="#505F98" d="m501.886 419.847 25.032-20.129 32.435 40.23-25.032 20.129-32.435-40.23Z"/>
  <path fill="url(#B)" d="m501.886 419.847 25.032-20.129 32.435 40.23-25.032 20.129-32.435-40.23Z"/>
  <path fill="#505F98" d="m528.006 399.389 25.067-20.22 32.583 40.287-25.068 20.22-32.582-40.287Zm25.08-20.399 25.068-20.22 32.582 40.287-25.068 20.22-32.582-40.287Z"/>
  <path fill="#505F98" d="m576.693 360.051 25.033-20.128 32.435 40.23-25.033 20.128-32.435-40.23Z"/>
  <path fill="url(#C)" d="M606.712 403.218 585.613 420l-31.938-40.218L574.774 363l31.938 40.218Z"/>
  <path fill="url(#D)" d="m573.736 362.648 25.032-20.129 32.435 40.23-25.032 20.129-32.435-40.23Z"/>
  <path fill="#505F98" d="M522.653 484.15V607h-21.014V484.15c0-4.54 2.818-8.58 7.018-10.061v-12.264c0-2.113 1.676-3.825 3.743-3.825 2.068 0 3.744 1.712 3.744 3.825v12.472c3.919 1.638 6.488 5.526 6.509 9.853Z"/>
  <path fill="url(#E)" d="M522.653 484.15V607h-21.014V484.15c0-4.54 2.818-8.58 7.018-10.061v-12.264c0-2.113 1.676-3.825 3.743-3.825 2.068 0 3.744 1.712 3.744 3.825v12.472c3.919 1.638 6.488 5.526 6.509 9.853Z"/>
  <rect width="50.035" height="9" x="488.63" y="562" fill="#505F98" rx="2.245"/>
  <path fill="#505F98" d="M513.336 644c-8.573 0-15.7-12.815-15.7-21.366V566h31.022v56.634c0 8.551-6.771 21.366-15.322 21.366Z"/>
  <rect width="50.035" height="9" x="488.63" y="562" fill="url(#F)" rx="2.245"/>
  <path fill="url(#G)" d="M513.336 644c-8.573 0-15.7-12.634-15.7-21.063V571h31.022v51.937c0 8.429-6.771 21.063-15.322 21.063Z"/>
  <path fill="#28353D" d="M713.428 704c-.674-3.564-1.099-8.61.195-8.957 2.728-.768-.195 8.957-.195 8.957Z"/>
  <path fill="#606161" d="M856.687 899.507c-.486 12.595-10.248 58.881-10.565 71.497 0 4.198 1.12 10.643-.233 14.694-2.789 8.586-12.678 7.41-13.967 2.351l-.486-2.519c-4.586-24.518 2.789-52.332 0-84.344-1.67-19.543-9.446-57.223-14.538-57.475-2.684 0-63.941 129.14-69.266 137.096-2.621 4.01-9.995 3.38-13.566 6.613-3.571 3.232 29.752-97.905 43.719-151.35a169.07 169.07 0 0 0 6.339-33.818c.381-6.612-1.754-8.837 4.353-10.789 4.226-1.344 10.08-.966 14.601-1.281 4.924-.378 50.714-.462 50.714 2.771-.444 17.549 4.078 77.459 2.895 106.554Z"/>
  <path fill="url(#H)" d="M856.687 899.507c-.486 12.595-10.248 58.881-10.565 71.497 0 4.198 1.12 10.643-.233 14.694-2.789 8.586-12.678 7.41-13.967 2.351l-.486-2.519c-4.586-24.518 2.789-52.332 0-84.344-1.67-19.543-9.446-57.223-14.538-57.475-2.684 0-63.941 129.14-69.266 137.096-2.621 4.01-9.995 3.38-13.566 6.613-3.571 3.232 29.752-97.905 43.719-151.35a169.07 169.07 0 0 0 6.339-33.818c.381-6.612-1.754-8.837 4.353-10.789 4.226-1.344 10.08-.966 14.601-1.281 4.924-.378 50.714-.462 50.714 2.771-.444 17.549 4.078 77.459 2.895 106.554Z"/>
  <path fill="#FFCD9C" d="M802.614 631.148c-.385-3.985-2.268-6.148-4.108-6.148-1.839 0-2.973 2.12-2.588 6.148.087 2.974 2.331 5.449 5.305 5.852 1.862 0 1.797-1.866 1.391-5.852Zm32.394.011c.25-3.993 2.087-6.159 3.986-6.159s3.13 2.124 2.838 6.159c-.027 3.014-2.272 5.528-5.217 5.841-1.879 0-1.9-1.848-1.607-5.841Z"/>
  <path fill="#F4AD7D" d="M838.732 648.672c-.259 2.105-9.174 11.328-19.319 11.328-10.146 0-18.521-8.423-20.291-11.792-1.77-3.369 5.353-46.703 9.476-50.324 4.123-3.622 20.831-1.243 22.234.674 3.367 4.527 9.001 41.712 7.9 50.114Z"/>
  <path fill="#FFCD9C" d="M834.538 615.977c-1.379.662-6.795-13.135-7.931-15.452-1.135-2.317-.953-4.696.426-5.358 1.38-.662 3.408.704 4.544 3 1.136 2.296 4.32 17.169 2.961 17.81Zm-30.37-.99c-1.431-.486 2.357-14.808 3.183-17.284.826-2.475 2.68-4.104 4.03-3.617 1.35.487 1.914 2.898 1.088 5.395-.826 2.496-6.951 15.993-8.301 15.506Z"/>
  <path fill="#F4AD7D" d="M809.845 647h21.763l3.262 20.622c-11.856 6.383-18.769 5.679-28.02-1.408L809.845 647Z"/>
  <path fill="#F4AD7D" d="M818.859 651.13c0-.38.905-.7 2.001-.7 1.096 0 2.001.32 2.001.7 0 .38-.881.44-2.001.44-1.12 0-2.001-.04-2.001-.44Z"/>
  <path fill="#606161" d="M839.892 641.808c.824-4.914 2.168-40.1-1.128-44.757-3.295-4.657-23.023-7.67-26.015-6.943-6.699 1.623-5.528 6.409-5.528 6.409-1.991.03-3.941.567-5.658 1.559-2.298 1.539-7.133 23.714-3.274 40.484 1.734 7.542 8.563 14.1 20.357 14.421 14.525.384 20.249-5.085 21.246-11.173Z"/>
  <path fill="#606161" d="M812.831 591.762a7.47 7.47 0 0 1 5.599-1.721 48.524 48.524 0 0 1 17.935 3.335 22.165 22.165 0 0 1 8.42 5.332 11.027 11.027 0 0 1 2.968 9.326c-1.053 5.013-6.315 8.114-8.041 12.936-1.39 3.867-.4 7.605-.358 11.493a58.54 58.54 0 0 1-.674 9.389c-.968 6.054-6.504 11.492-20.713 11.131-11.451-.319-18.082-6.84-19.766-14.339a82.954 82.954 0 0 1 1.747-37.429 81.945 81.945 0 0 0 18.819 2.124 80.43 80.43 0 0 0 19.934-2.337c1.116 6.501 1.095 19.522.737 29.251"/>
  <path fill="#505F98" d="M777.702 663.954a20.644 20.644 0 0 0-9.625 3.326c-4.938 3.891-5.313 11.15-5.229 17.468-.17 8.753.437 17.504 1.812 26.149 1.479 7.929 4.167 15.544 6.375 23.305a151.496 151.496 0 0 1 5.438 38.764c0 7.196-.125 15.104 4.354 20.731 4.896 6.109 13.563 7.301 21.355 7.741 11.063.648 22.167.732 33.23.271 7.417-.334 15.313-1.066 21.188-5.627 4.688-3.64 15.667-126.794 7.146-129.911-8.521-3.117-17.688-3.912-26.73-4.665-20.271-1.715-39.355-3.075-59.314 2.448Z"/>
  <path fill="url(#I)" d="M841.521 919.291c-1.086 13.964-3.678 64.709-3.678 64.709l-6.605-.23c-4.536-24.38 2.759-52.038 0-83.871-1.652-19.434-9.343-56.903-14.381-57.153 1.505-12.525 9.97-10.646 9.97-10.646a182.977 182.977 0 0 1 15.865 29.078c5.037 13.192-.063 44.085-1.171 58.113Z"/>
  <path fill="#505F98" d="M717.164 985.024a6.52 6.52 0 0 0-2.251 3.001 4.6 4.6 0 0 0 .271 2.94 8.568 8.568 0 0 0 5.984 4.585c2.576.49 5.215.581 7.819.268l8.341-.556a23.348 23.348 0 0 0 6.255-1.007 7.66 7.66 0 0 0 4.629-3.947c.492-1.392.683-2.87.563-4.339 0-6.805-2.418-12.335-9.967-10.67a50.018 50.018 0 0 0-21.644 9.725Zm138.539 3.039a5.953 5.953 0 0 1 2.067 2.734c.214.885.13 1.814-.24 2.649-1.062 2.138-3.092 3.668-5.483 4.133a23.145 23.145 0 0 1-7.159.255l-7.572-.509a21.455 21.455 0 0 1-5.68-.89 6.955 6.955 0 0 1-4.221-3.582 9.478 9.478 0 0 1-.522-3.921c0-6.147 2.176-11.212 9.117-9.644a45.86 45.86 0 0 1 19.693 8.775ZM864.891 666s32.715 19.163 42.541 43.389c9.825 24.225-32.18 82.611-32.18 82.611l-8.989-9.186s21.925-44.055 18.536-55.074c-3.39-11.019-16.669-21.288-16.669-21.288L864.891 666Zm-93.065 37.859s-45.488 20.381-63.973 10.379c-18.485-10.001.545-60.238.545-60.238l12.379 4.202s-10.344 25.613 1.49 29.416c11.834 3.803 47.293-21.18 47.293-21.18l2.266 37.421Z"/>
  <path fill="#F4AD7D" d="M857.466 790.976a9.156 9.156 0 0 0-3.085 3.321 7.567 7.567 0 0 0-.453 3.522c-.079 2.89 1.235 5.66 3.582 7.548a12.815 12.815 0 0 0 5.393 1.49c1.163.191 2.353.191 3.516 0 1.187-.211 2.178-.969 2.632-2.013a7.54 7.54 0 0 0 .194-2.013c.151-3.321 2.654-6.038 4.725-8.755.5-.525.823-1.176.927-1.872a3.303 3.303 0 0 0-.819-2.113c-1.403-1.892-4.876-5.374-7.659-5.073-2.783.302-6.795 4.308-8.953 5.958ZM728.585 646.435a6.945 6.945 0 0 0 1.187-2.737c.151-1.015-.386-2.011-1.341-2.487-1.516-.564-3.317.919-4.811.293a3.29 3.29 0 0 1-1.231-1.129 15.29 15.29 0 0 1-2.922-8.232 15.936 15.936 0 0 0-.439-4.68c-.445-1.577-2.028-2.614-3.735-2.445-1.407.313-2.198 1.671-3.076 2.758-.879 1.087-2.637 2.382-3.78 3.74a17.881 17.881 0 0 0-3.229 9.382c-.616 4.179-1.011 8.963 2.065 11.972 2.373 2.319 9.601 5.057 12.919 3.824 3.669-1.379 6.548-7.25 8.393-10.259Z"/>
  <defs>
    <linearGradient id="a" x1="528.402" x2="593.156" y1="560.166" y2="431.6" gradientUnits="userSpaceOnUse">
      <stop stop-color="#010101" stop-opacity=".01"/>
      <stop offset=".95" stop-color="#010101"/>
    </linearGradient>
    <linearGradient id="b" x1="583.563" x2="676.417" y1="556.365" y2="374.775" gradientUnits="userSpaceOnUse">
      <stop stop-color="#010101" stop-opacity=".01"/>
      <stop offset=".95" stop-color="#010101"/>
    </linearGradient>
    <linearGradient id="c" x1="703.545" x2="840.899" y1="565.092" y2="254.948" gradientUnits="userSpaceOnUse">
      <stop stop-color="#010101" stop-opacity=".01"/>
      <stop offset=".95" stop-color="#010101"/>
    </linearGradient>
    <linearGradient id="d" x1="831.379" x2="1036.31" y1="581.583" y2="134.179" gradientUnits="userSpaceOnUse">
      <stop stop-color="#010101" stop-opacity=".01"/>
      <stop offset=".36" stop-color="#010101" stop-opacity=".36"/>
      <stop offset=".95" stop-color="#010101"/>
    </linearGradient>
    <linearGradient id="e" x1="682.726" x2="799.886" y1="476.564" y2="234.969" gradientUnits="userSpaceOnUse">
      <stop stop-color="#fff" stop-opacity=".01"/>
      <stop offset=".07" stop-color="#fff" stop-opacity=".22"/>
      <stop offset=".16" stop-color="#fff" stop-opacity=".45"/>
      <stop offset=".25" stop-color="#fff" stop-opacity=".65"/>
      <stop offset=".33" stop-color="#fff" stop-opacity=".8"/>
      <stop offset=".4" stop-color="#fff" stop-opacity=".91"/>
      <stop offset=".46" stop-color="#fff" stop-opacity=".98"/>
      <stop offset=".51" stop-color="#fff"/>
    </linearGradient>
    <linearGradient id="f" x1="604.65" x2="668.846" y1="423.444" y2="287.555" gradientUnits="userSpaceOnUse">
      <stop stop-color="#fff" stop-opacity=".01"/>
      <stop offset=".07" stop-color="#fff" stop-opacity=".22"/>
      <stop offset=".16" stop-color="#fff" stop-opacity=".45"/>
      <stop offset=".25" stop-color="#fff" stop-opacity=".65"/>
      <stop offset=".33" stop-color="#fff" stop-opacity=".8"/>
      <stop offset=".4" stop-color="#fff" stop-opacity=".91"/>
      <stop offset=".46" stop-color="#fff" stop-opacity=".98"/>
      <stop offset=".51" stop-color="#fff"/>
    </linearGradient>
    <linearGradient id="g" x1="909.972" x2="920.393" y1="886.322" y2="759.584" gradientUnits="userSpaceOnUse">
      <stop stop-color="#010101" stop-opacity=".01"/>
      <stop offset=".95" stop-color="#010101"/>
    </linearGradient>
    <linearGradient id="h" x1="508.259" x2="505.544" y1="423.517" y2="873.071" gradientUnits="userSpaceOnUse">
      <stop stop-color="#fff" stop-opacity=".01"/>
      <stop offset=".07" stop-color="#fff" stop-opacity=".22"/>
      <stop offset=".16" stop-color="#fff" stop-opacity=".45"/>
      <stop offset=".25" stop-color="#fff" stop-opacity=".65"/>
      <stop offset=".33" stop-color="#fff" stop-opacity=".8"/>
      <stop offset=".4" stop-color="#fff" stop-opacity=".91"/>
      <stop offset=".46" stop-color="#fff" stop-opacity=".98"/>
      <stop offset=".51" stop-color="#fff"/>
    </linearGradient>
    <linearGradient id="i" x1="254.605" x2="254.705" y1="861.073" y2="1003.31" gradientUnits="userSpaceOnUse">
      <stop stop-color="#010101" stop-opacity=".01"/>
      <stop offset=".95" stop-color="#010101"/>
    </linearGradient>
    <linearGradient id="j" x1="1407.02" x2="1441.2" y1="606.966" y2="199.855" gradientUnits="userSpaceOnUse">
      <stop stop-color="#fff" stop-opacity=".01"/>
      <stop offset=".07" stop-color="#fff" stop-opacity=".22"/>
      <stop offset=".16" stop-color="#fff" stop-opacity=".45"/>
      <stop offset=".25" stop-color="#fff" stop-opacity=".65"/>
      <stop offset=".33" stop-color="#fff" stop-opacity=".8"/>
      <stop offset=".4" stop-color="#fff" stop-opacity=".91"/>
      <stop offset=".46" stop-color="#fff" stop-opacity=".98"/>
      <stop offset=".51" stop-color="#fff"/>
    </linearGradient>
    <linearGradient id="k" x1="580.138" x2="718.145" y1="496.87" y2="865.142" gradientUnits="userSpaceOnUse">
      <stop stop-color="#fff" stop-opacity=".01"/>
      <stop offset=".07" stop-color="#fff" stop-opacity=".22"/>
      <stop offset=".16" stop-color="#fff" stop-opacity=".45"/>
      <stop offset=".25" stop-color="#fff" stop-opacity=".65"/>
      <stop offset=".33" stop-color="#fff" stop-opacity=".8"/>
      <stop offset=".4" stop-color="#fff" stop-opacity=".91"/>
      <stop offset=".46" stop-color="#fff" stop-opacity=".98"/>
      <stop offset=".51" stop-color="#fff"/>
    </linearGradient>
    <linearGradient id="l" x1="683.668" x2="680.343" y1="519.99" y2="802.698" gradientUnits="userSpaceOnUse">
      <stop stop-color="#fff" stop-opacity=".01"/>
      <stop offset=".07" stop-color="#fff" stop-opacity=".22"/>
      <stop offset=".16" stop-color="#fff" stop-opacity=".45"/>
      <stop offset=".25" stop-color="#fff" stop-opacity=".65"/>
      <stop offset=".33" stop-color="#fff" stop-opacity=".8"/>
      <stop offset=".4" stop-color="#fff" stop-opacity=".91"/>
      <stop offset=".46" stop-color="#fff" stop-opacity=".98"/>
      <stop offset=".51" stop-color="#fff"/>
    </linearGradient>
    <linearGradient id="m" x1="999.503" x2="1018.69" y1="711.704" y2="133.785" gradientUnits="userSpaceOnUse">
      <stop stop-color="#010101" stop-opacity=".01"/>
      <stop offset=".95" stop-color="#010101"/>
    </linearGradient>
    <linearGradient id="n" x1="998.651" x2="1017.84" y1="712.045" y2="134.125" gradientUnits="userSpaceOnUse">
      <stop stop-color="#010101" stop-opacity=".01"/>
      <stop offset=".95" stop-color="#010101"/>
    </linearGradient>
    <linearGradient id="o" x1="904.472" x2="923.688" y1="709.354" y2="131.435" gradientUnits="userSpaceOnUse">
      <stop stop-color="#010101" stop-opacity=".01"/>
      <stop offset=".95" stop-color="#010101"/>
    </linearGradient>
    <linearGradient id="p" x1="903.62" x2="922.836" y1="709.694" y2="131.776" gradientUnits="userSpaceOnUse">
      <stop stop-color="#010101" stop-opacity=".01"/>
      <stop offset=".95" stop-color="#010101"/>
    </linearGradient>
    <linearGradient id="q" x1="997.712" x2="1016.93" y1="713.545" y2="135.627" gradientUnits="userSpaceOnUse">
      <stop stop-color="#010101" stop-opacity=".01"/>
      <stop offset=".95" stop-color="#010101"/>
    </linearGradient>
    <linearGradient id="r" x1="903.682" x2="922.87" y1="711.236" y2="133.317" gradientUnits="userSpaceOnUse">
      <stop stop-color="#010101" stop-opacity=".01"/>
      <stop offset=".95" stop-color="#010101"/>
    </linearGradient>
    <linearGradient id="s" x1="951.672" x2="970.888" y1="712.396" y2="134.499" gradientUnits="userSpaceOnUse">
      <stop stop-color="#010101" stop-opacity=".01"/>
      <stop offset=".95" stop-color="#010101"/>
    </linearGradient>
    <linearGradient id="t" x1="953.488" x2="972.704" y1="709.843" y2="131.925" gradientUnits="userSpaceOnUse">
      <stop stop-color="#010101" stop-opacity=".01"/>
      <stop offset=".95" stop-color="#010101"/>
    </linearGradient>
    <linearGradient id="u" x1="608.41" x2="840.643" y1="724.399" y2="941.094" gradientUnits="userSpaceOnUse">
      <stop stop-color="#fff" stop-opacity=".01"/>
      <stop offset=".07" stop-color="#fff" stop-opacity=".22"/>
      <stop offset=".16" stop-color="#fff" stop-opacity=".45"/>
      <stop offset=".25" stop-color="#fff" stop-opacity=".65"/>
      <stop offset=".33" stop-color="#fff" stop-opacity=".8"/>
      <stop offset=".4" stop-color="#fff" stop-opacity=".91"/>
      <stop offset=".46" stop-color="#fff" stop-opacity=".98"/>
      <stop offset=".51" stop-color="#fff"/>
    </linearGradient>
    <linearGradient id="v" x1="957.277" x2="955.492" y1="504.864" y2="640.026" gradientUnits="userSpaceOnUse">
      <stop stop-color="#fff" stop-opacity=".01"/>
      <stop offset=".07" stop-color="#fff" stop-opacity=".22"/>
      <stop offset=".16" stop-color="#fff" stop-opacity=".45"/>
      <stop offset=".25" stop-color="#fff" stop-opacity=".65"/>
      <stop offset=".33" stop-color="#fff" stop-opacity=".8"/>
      <stop offset=".4" stop-color="#fff" stop-opacity=".91"/>
      <stop offset=".46" stop-color="#fff" stop-opacity=".98"/>
      <stop offset=".51" stop-color="#fff"/>
    </linearGradient>
    <linearGradient id="w" x1="957.277" x2="955.492" y1="614.864" y2="750.026" gradientUnits="userSpaceOnUse">
      <stop stop-color="#fff" stop-opacity=".01"/>
      <stop offset=".07" stop-color="#fff" stop-opacity=".22"/>
      <stop offset=".16" stop-color="#fff" stop-opacity=".45"/>
      <stop offset=".25" stop-color="#fff" stop-opacity=".65"/>
      <stop offset=".33" stop-color="#fff" stop-opacity=".8"/>
      <stop offset=".4" stop-color="#fff" stop-opacity=".91"/>
      <stop offset=".46" stop-color="#fff" stop-opacity=".98"/>
      <stop offset=".51" stop-color="#fff"/>
    </linearGradient>
    <linearGradient id="x" x1="593.437" x2="593.42" y1="540.281" y2="558.481" gradientUnits="userSpaceOnUse">
      <stop stop-color="#fff" stop-opacity=".01"/>
      <stop offset=".07" stop-color="#fff" stop-opacity=".22"/>
      <stop offset=".16" stop-color="#fff" stop-opacity=".45"/>
      <stop offset=".25" stop-color="#fff" stop-opacity=".65"/>
      <stop offset=".33" stop-color="#fff" stop-opacity=".8"/>
      <stop offset=".4" stop-color="#fff" stop-opacity=".91"/>
      <stop offset=".46" stop-color="#fff" stop-opacity=".98"/>
      <stop offset=".51" stop-color="#fff"/>
    </linearGradient>
    <linearGradient id="y" x1="512.737" x2="626.168" y1="593.052" y2="503.635" gradientUnits="userSpaceOnUse">
      <stop stop-color="#010101" stop-opacity=".01"/>
      <stop offset=".95" stop-color="#010101"/>
    </linearGradient>
    <linearGradient id="z" x1="562.575" x2="723.852" y1="612.988" y2="487.867" gradientUnits="userSpaceOnUse">
      <stop stop-color="#010101" stop-opacity=".01"/>
      <stop offset=".95" stop-color="#010101"/>
    </linearGradient>
    <linearGradient id="A" x1="667.519" x2="923.684" y1="671.751" y2="449.028" gradientUnits="userSpaceOnUse">
      <stop stop-color="#010101" stop-opacity=".01"/>
      <stop offset=".95" stop-color="#010101"/>
    </linearGradient>
    <linearGradient id="B" x1="776.279" x2="1151.96" y1="740.865" y2="422.45" gradientUnits="userSpaceOnUse">
      <stop stop-color="#010101" stop-opacity=".01"/>
      <stop offset=".36" stop-color="#010101" stop-opacity=".36"/>
      <stop offset=".95" stop-color="#010101"/>
    </linearGradient>
    <linearGradient id="C" x1="624.537" x2="807.477" y1="503.751" y2="372.322" gradientUnits="userSpaceOnUse">
      <stop stop-color="#fff" stop-opacity=".01"/>
      <stop offset=".07" stop-color="#fff" stop-opacity=".22"/>
      <stop offset=".16" stop-color="#fff" stop-opacity=".45"/>
      <stop offset=".25" stop-color="#fff" stop-opacity=".65"/>
      <stop offset=".33" stop-color="#fff" stop-opacity=".8"/>
      <stop offset=".4" stop-color="#fff" stop-opacity=".91"/>
      <stop offset=".46" stop-color="#fff" stop-opacity=".98"/>
      <stop offset=".51" stop-color="#fff"/>
    </linearGradient>
    <linearGradient id="D" x1="638.151" x2="754.009" y1="501.517" y2="405.658" gradientUnits="userSpaceOnUse">
      <stop stop-color="#fff" stop-opacity=".01"/>
      <stop offset=".07" stop-color="#fff" stop-opacity=".22"/>
      <stop offset=".16" stop-color="#fff" stop-opacity=".45"/>
      <stop offset=".25" stop-color="#fff" stop-opacity=".65"/>
      <stop offset=".33" stop-color="#fff" stop-opacity=".8"/>
      <stop offset=".4" stop-color="#fff" stop-opacity=".91"/>
      <stop offset=".46" stop-color="#fff" stop-opacity=".98"/>
      <stop offset=".51" stop-color="#fff"/>
    </linearGradient>
    <linearGradient id="E" x1="503.738" x2="541.923" y1="667.745" y2="667.767" gradientUnits="userSpaceOnUse">
      <stop stop-color="#fff" stop-opacity=".01"/>
      <stop offset=".07" stop-color="#fff" stop-opacity=".22"/>
      <stop offset=".16" stop-color="#fff" stop-opacity=".45"/>
      <stop offset=".25" stop-color="#fff" stop-opacity=".65"/>
      <stop offset=".33" stop-color="#fff" stop-opacity=".8"/>
      <stop offset=".4" stop-color="#fff" stop-opacity=".91"/>
      <stop offset=".46" stop-color="#fff" stop-opacity=".98"/>
      <stop offset=".51" stop-color="#fff"/>
    </linearGradient>
    <linearGradient id="F" x1="430.446" x2="442.097" y1="570.2" y2="608.932" gradientUnits="userSpaceOnUse">
      <stop stop-color="#010101" stop-opacity=".01"/>
      <stop offset=".95" stop-color="#010101"/>
    </linearGradient>
    <linearGradient id="G" x1="455.244" x2="556.146" y1="718.933" y2="720.976" gradientUnits="userSpaceOnUse">
      <stop stop-color="#010101" stop-opacity=".01"/>
      <stop offset=".95" stop-color="#010101"/>
    </linearGradient>
    <linearGradient id="H" x1="858.015" x2="761.922" y1="876.512" y2="711.732" gradientUnits="userSpaceOnUse">
      <stop stop-color="#010101" stop-opacity=".01"/>
      <stop offset=".95" stop-color="#010101"/>
    </linearGradient>
    <linearGradient id="I" x1="859.037" x2="686.151" y1="414.892" y2="419.761" gradientUnits="userSpaceOnUse">
      <stop stop-color="#010101" stop-opacity=".01"/>
      <stop offset=".95" stop-color="#010101"/>
    </linearGradient>
  </defs>
</svg>
